<svg width="50" height="37" fill="none" xmlns="http://www.w3.org/2000/svg"><g opacity=".9" fill="#02153E"><path d="M18.51 14.988l-.086-.441h1.841c.436-1.398.966-2.69 1.579-3.87A13.841 13.841 0 0124.08 7.53c.874-.922 1.893-1.7 3.058-2.337 1.163-.641 2.513-1.117 4.045-1.436l-.015-.074c-1.62 0-3.23-.025-4.82-.073-1.596-.05-3.202-.074-4.824-.074-1.155 0-2.409.043-3.766.13-1.36.086-2.716.238-4.074.458a30.354 30.354 0 00-3.86.884c-1.216.37-2.275.835-3.17 1.397-.896.565-1.57 1.234-2.016 2.009-.45.772-.572 1.689-.365 2.742A3.63 3.63 0 005.226 13a6.346 6.346 0 001.725 1.27c.654.333 1.345.57 2.072.718.732.149 1.401.222 2.017.222 1.276 0 2.421-.16 3.442-.478 1.019-.32 1.855-.793 2.503-1.418a4.998 4.998 0 001.355-2.284c.253-.894.266-1.933.033-3.11-.053-.271-.094-.481-.124-.626a2.046 2.046 0 00-.116-.405h.443c.038.195.08.38.127.552.048.172.086.345.119.517.245 1.253.225 2.426-.064 3.517-.289 1.094-.783 2.039-1.487 2.839a7.565 7.565 0 01-2.594 1.894c-1.026.469-2.163.702-3.415.702-.762 0-1.54-.12-2.335-.352a8.382 8.382 0 01-2.224-1.013 6.755 6.755 0 01-1.781-1.656 5.43 5.43 0 01-.996-2.247c-.273-1.4-.164-2.557.33-3.48A7.711 7.711 0 016.305 5.75a17.01 17.01 0 014.281-2.485 27.012 27.012 0 014.894-1.438 40.569 40.569 0 015.229-.663 83.692 83.692 0 015.218-.165c1.006 0 2.057.025 3.146.073 1.092.049 2.138.104 3.147.168 1.005.06 1.925.119 2.758.164.834.05 1.51.086 2.03.112.668.027 1.16.136 1.481.331.32.198.53.542.628 1.034.084.417-.093.75-.524.995-.43.243-1.173.367-2.232.367-.76 0-1.522-.03-2.282-.094a30.44 30.44 0 00-2.323-.091c-.76 0-1.451.18-2.067.534a6.828 6.828 0 00-1.71 1.418 10.617 10.617 0 00-1.393 2.009 28.802 28.802 0 00-1.958 4.568l-.644 1.97c.456-.05.95-.081 1.474-.094a6.125 6.125 0 001.47-.202 3.184 3.184 0 001.19-.59c.34-.271.558-.661.654-1.178a55.52 55.52 0 013.985-.15c-.69.614-1.381 1.247-2.075 1.898-.697.65-1.34 1.342-1.933 2.079a14.69 14.69 0 00-1.545 2.357c-.438.836-.758 1.73-.965 2.687h-.294c.157-1.2.395-2.363.717-3.48a24.847 24.847 0 011.17-3.223c-.236.05-.53.091-.876.132a26.4 26.4 0 01-1.087.09l-1.092.074c-.35.025-.651.038-.894.038a76.365 76.365 0 01-2.125 4.642 16.83 16.83 0 01-2.724 3.96 12.13 12.13 0 01-3.827 2.743c-1.485.689-3.299 1.033-5.434 1.033-.735 0-1.558-.091-2.467-.276a11.218 11.218 0 01-2.602-.866 7.647 7.647 0 01-2.184-1.547 4.426 4.426 0 01-1.21-2.32c-.135-.686-.046-1.294.268-1.823.312-.527.803-.79 1.464-.79.54 0 1.026.154 1.454.458.428.306.7.745.811 1.307.07.367.03.719-.127 1.048-.157.332-.463.522-.92.573.183.683.454 1.276.806 1.767.355.491.778.884 1.264 1.177a5.498 5.498 0 001.62.646 7.98 7.98 0 001.808.203c1.644 0 3.017-.398 4.111-1.198a10.882 10.882 0 002.784-2.98 20.355 20.355 0 001.925-3.887 85.415 85.415 0 011.543-3.867H18.51v-.01z"/><path d="M16.516 27.607c.122-.443.314-.843.573-1.198.258-.354.577-.638.957-.848.38-.208.828-.314 1.345-.314.492 0 .937.142 1.343.423.405.28.608.694.608 1.235 0 .664-.241 1.173-.72 1.53a2.894 2.894 0 01-1.639.57 4.351 4.351 0 00-.238 1.033 9.987 9.987 0 00-.056 1.03c0 .834.203 1.543.606 2.118a4.505 4.505 0 001.548 1.38c.625.344 1.32.597 2.082.754.76.16 1.484.24 2.17.24 1.23 0 2.29-.222 3.188-.663a7.174 7.174 0 002.302-1.787c.639-.75 1.16-1.6 1.566-2.558.408-.96.724-1.965.96-3.021a25.78 25.78 0 00.496-3.186c.1-1.068.173-2.066.223-3 .074-1.695.307-3.3.7-4.825.392-1.521.975-2.856 1.75-3.995a8.648 8.648 0 012.91-2.71c1.166-.661 2.562-.993 4.183-.993.686 0 1.358.069 2.006.203a4.924 4.924 0 011.713.681c.491.32.891.72 1.198 1.198.306.478.46 1.073.46 1.785 0 .59-.118 1.086-.349 1.492a2.676 2.676 0 01-.922.957c-.38.233-.823.405-1.327.516a7.212 7.212 0 01-1.566.165 8.32 8.32 0 00.793-1.656c.185-.54.276-1.155.276-1.844 0-.932-.25-1.674-.755-2.228-.501-.552-1.16-.828-1.97-.828-.958 0-1.75.233-2.377.701-.625.466-1.147 1.1-1.565 1.897-.418.798-.735 1.73-.958 2.798a42.654 42.654 0 00-.552 3.388 80.218 80.218 0 00-.37 3.667 86.694 86.694 0 01-.367 3.682c-.122 1.056-.405 2.196-.849 3.424-.44 1.228-1.117 2.378-2.024 3.444-.91 1.066-2.095 1.957-3.556 2.669-1.462.712-3.273 1.069-5.434 1.069-1.056 0-2.097-.14-3.131-.423a8.274 8.274 0 01-2.746-1.307 6.877 6.877 0 01-1.933-2.208c-.489-.884-.737-1.917-.737-3.095 0-.466.063-.922.185-1.362z"/></g></svg>