<svg width="230" height="160" fill="none" xmlns="http://www.w3.org/2000/svg"><path d="M59.982 88.387H.5v2.981h59.482v-2.981zM.531 99.234v2.598H2.84c1.001 0 1.957.243 2.828.713.573.32.948.696 1.108 1.095.176.446.39 1.55.39 4.265v29.181c0 3.326-.428 4.375-.673 4.696-.741.931-1.94 1.385-3.66 1.385H.522v2.598h21.239v-2.598h-2.339a5.996 5.996 0 01-2.835-.72c-.588-.321-.97-.689-1.139-1.096-.175-.446-.39-1.541-.39-4.265v-13.499h7.788c1.437 0 2.515.18 3.202.54.673.353 1.185.869 1.567 1.573.39.72.596 1.91.62 3.545l.007.673h2.583v-16.652h-2.514l-.07.594c-.274 2.285-.81 3.803-1.581 4.523-.772.713-2.056 1.073-3.814 1.073H15.06v-16.395h9.561c2.324 0 4.05.211 5.12.626a6.171 6.171 0 012.63 1.941c.726.908 1.383 2.394 1.949 4.406l.137.493h2.392l-.504-11.293H.531zm51.77 43.575a2.263 2.263 0 01-1.024-1.104c-.138-.297-.367-1.142-.367-3.506V97.045h-2.33l-10.142 4.054 1.184 2.379.558-.22c1.483-.579 2.423-.641 2.958-.203.13.102.367.407.535 1.221.107.508.229 2.003.229 6.205v27.711c0 2.214-.206 3.153-.382 3.545-.237.532-.543.899-.94 1.111-.237.133-.894.352-2.63.352h-.664v2.559h16.683V143.2h-.665c-1.872.008-2.667-.211-3.003-.391zm20.209-29.812c-2.698 0-5.297.697-7.712 2.066-2.43 1.385-4.417 3.537-5.892 6.409-1.468 2.849-2.216 5.768-2.216 8.663 0 3.983 1.23 7.614 3.66 10.815 2.904 3.819 6.863 5.759 11.777 5.759 3.004 0 5.77-.751 8.224-2.222 2.46-1.479 4.417-3.709 5.816-6.613 1.383-2.879 2.086-5.775 2.086-8.592 0-4.03-1.284-7.653-3.814-10.768-2.988-3.662-7-5.517-11.93-5.517zm1.092 29.98c-2.736 0-4.89-1.472-6.588-4.492-1.742-3.099-2.629-6.848-2.629-11.152 0-2.645.36-4.828 1.07-6.487.688-1.604 1.59-2.739 2.675-3.357 1.116-.642 2.232-.963 3.317-.963 2.316 0 4.165.963 5.67 2.943 2.286 2.973 3.448 7.129 3.448 12.372 0 4.147-.673 7.082-2.003 8.725-1.306 1.62-2.934 2.411-4.96 2.411z" fill="#CBE1ED"/><path d="M111.256 114.284c-.94-.853-2.14-1.283-3.554-1.283-2.552 0-5.036 1.753-7.405 5.22v-5.22h-2.102L87.908 117l.711 2.504.665-.25c1.39-.525 2.575-.658 3.256-.133.267.211.458.579.573 1.087.091.431.206 1.855.206 6.198v11.824c0 2.372-.107 2.919-.145 3.037-.184.618-.482 1.048-.91 1.314-.664.423-1.742.634-3.21.634h-.664v2.559h17.371v-2.559h-.665c-1.299 0-2.292-.18-2.942-.524-.627-.329-1.055-.736-1.292-1.205-.382-.767-.573-1.949-.573-3.522v-14.453c1.024-1.925 2.018-3.326 2.965-4.164.344-.32.658-.493.887-.493.115 0 .588.071 1.804 1.01 2.292 1.769 4.264 1.612 5.67.188.719-.728 1.086-1.636 1.086-2.684.007-1.166-.482-2.207-1.445-3.084zm26.031 18.77c-.971 2.528-2.179 4.32-3.577 5.337-1.399 1.009-3.065 1.526-4.968 1.526-2.912 0-5.38-1.19-7.551-3.639-2.04-2.308-3.118-5.509-3.21-9.516h21.652v-.681c0-3.951-1.208-7.152-3.592-9.531-2.377-2.371-5.442-3.576-9.118-3.576-4.318 0-7.963 1.541-10.822 4.585-2.858 3.037-4.31 7.302-4.31 12.686 0 4.977 1.414 9.007 4.203 11.98 2.798 2.982 6.206 4.492 10.142 4.492 3.638 0 6.718-1.33 9.141-3.959 2.384-2.591 3.844-5.502 4.348-8.671l.069-.454-2.117-1.33-.29.751zm-12.282-16.355c1.1 0 2.178.328 3.195.962 1.024.65 1.773 1.51 2.292 2.637.283.619.489 1.683.604 3.162h-13.038c.321-2.019 1.093-3.631 2.316-4.797 1.383-1.323 2.896-1.964 4.631-1.964zm32.328 10.75l-4.998-2.363c-2.063-.97-3.431-1.878-4.081-2.715-.634-.767-.94-1.667-.94-2.755 0-.79.398-1.51 1.223-2.199.856-.72 2.018-1.08 3.447-1.08 1.926 0 3.523.54 4.753 1.604 1.246 1.08 2.301 3.209 3.126 6.323l.13.501h2.3v-11.754H160.1l-.183.368c-.321.626-.497.775-.528.798-.046.039-.175.102-.458.102-.184 0-.711-.063-2.148-.477-1.811-.525-3.378-.791-4.662-.791-2.965 0-5.426.916-7.314 2.716-1.903 1.815-2.866 4.1-2.866 6.792 0 2.09.574 3.85 1.689 5.228 1.101 1.377 3.302 2.856 6.733 4.515 3.233 1.565 5.404 2.856 6.451 3.85.97.916 1.444 2.019 1.444 3.365 0 1.072-.413 1.964-1.261 2.739-.879.79-1.987 1.182-3.408 1.182-2.094 0-3.929-.72-5.625-2.199-1.682-1.471-2.836-3.71-3.439-6.652l-.115-.54h-2.331v12.255h2.193l.184-.36c.229-.446.451-.501.642-.501.412 0 .97.102 1.681.313 2.507.681 4.777 1.025 6.741 1.025 2.805 0 5.373-.907 7.642-2.692 2.316-1.823 3.493-4.265 3.493-7.254.008-3.897-2.461-7.027-7.322-9.344zm71.443 15.762c-1.727 0-2.468-.211-2.782-.383-.435-.243-.741-.563-.932-.994-.191-.407-.413-1.369-.413-3.639v-13.021c0-2.865-.26-4.954-.795-6.378-.779-2.035-1.849-3.53-3.194-4.437-1.338-.9-2.943-1.362-4.777-1.362-3.156 0-6.458 1.816-9.836 5.392v-5.392h-2.262l-10.203 4.03 1.047 2.442.581-.219c1.452-.54 2.545-.603 3.072-.173.13.102.375.407.551 1.245.107.516.244 2.066.244 6.55v11.323c0 2.567-.39 3.655-.711 4.109-.428.602-1.329.9-2.697.9h-1.284a21.902 21.902 0 001.811-2.098l.145-.187v-3.686l-1.123 1.087c-1.651 1.613-2.354 2.16-2.637 2.332-.306.173-.787.259-1.123-.031-.039-.031-.214-.211-.337-.908-.076-.422-.16-1.666-.16-5.227v-10.345c0-3.076-.222-5.087-.673-6.143-.703-1.605-1.803-2.802-3.286-3.561-1.865-.955-4.265-1.44-7.138-1.44-3.76 0-6.741.853-8.858 2.543-2.17 1.73-3.271 3.678-3.271 5.799 0 1.174.329 2.129.986 2.833.665.712 1.521 1.08 2.553 1.08 1.047 0 1.91-.344 2.575-1.033.657-.689.994-1.643.994-2.872l-.069-1.91c0-.774.352-1.455 1.07-2.081.718-.642 1.719-.963 2.988-.963 1.712 0 2.965.486 3.837 1.472.871 1.001 1.314 2.95 1.314 5.806v.712c-5.166 1.847-8.934 3.443-11.204 4.75-2.399 1.385-4.119 2.896-5.105 4.492-.749 1.197-1.131 2.622-1.131 4.234 0 2.527.772 4.609 2.3 6.174 1.529 1.573 3.485 2.363 5.824 2.363 1.475 0 2.889-.297 4.203-.892.78-.36 2.484-1.518 5.197-3.537.145 1.346.52 2.348 1.124 3.036.787.9 1.849 1.354 3.164 1.354 1.933 0 3.936-1.041 5.969-3.091v2.497h16.821v-2.559h-.665c-2.094 0-2.836-.235-3.095-.376-.436-.235-.772-.603-1.04-1.127-.091-.172-.298-.869-.298-3.514v-15.815c2.492-2.606 4.991-3.921 7.444-3.921 1.521 0 2.56.509 3.179 1.558.673 1.142 1.017 3.06 1.017 5.689v12.489c0 2.356-.084 2.849-.115 2.951-.191.696-.504 1.205-.963 1.541-.321.235-1.039.517-2.675.517h-1.314v2.559h16.821v-2.559h-.665v.015zm-50.479-12.873c.887-.493 2.797-1.314 5.694-2.441v10.298c-2.576 1.98-4.654 2.99-6.175 2.99-1.101 0-2.049-.446-2.904-1.37-.864-.931-1.284-2.081-1.284-3.514 0-1.126.336-2.136 1.031-3.091.703-.978 1.926-1.94 3.638-2.872zm-82.188-87.11l-.26-1.362h5.556c1.314-4.32 2.912-8.31 4.761-11.957 1.857-3.64 4.104-6.879 6.749-9.727 2.636-2.849 5.709-5.251 9.224-7.223 3.508-1.98 7.582-3.451 12.205-4.437l-.046-.227c-4.891 0-9.744-.079-14.543-.227a446.37 446.37 0 00-14.552-.227c-3.485 0-7.268.133-11.364.399-4.104.266-8.193.735-12.29 1.416-4.096.689-7.978 1.597-11.647 2.731-3.668 1.143-6.863 2.583-9.56 4.32-2.706 1.745-4.739 3.811-6.084 6.206-1.36 2.386-1.727 5.22-1.1 8.475.42 2.199 1.383 4.1 2.873 5.697 1.49 1.596 3.225 2.895 5.205 3.928a24.055 24.055 0 006.251 2.215c2.21.461 4.227.688 6.084.688 3.852 0 7.306-.493 10.386-1.479 3.072-.986 5.594-2.449 7.55-4.382 1.965-1.94 3.325-4.288 4.09-7.059.764-2.762.802-5.97.099-9.61-.16-.837-.283-1.486-.374-1.932a6.46 6.46 0 00-.352-1.252h1.337c.115.602.245 1.173.383 1.706.145.532.26 1.064.359 1.596.741 3.874.68 7.497-.191 10.87-.872 3.38-2.362 6.3-4.487 8.772-2.124 2.465-4.73 4.422-7.825 5.854-3.096 1.447-6.527 2.167-10.303 2.167-2.3 0-4.646-.367-7.046-1.087a25.012 25.012 0 01-6.71-3.13 20.575 20.575 0 01-5.373-5.119c-1.505-2.05-2.507-4.358-3.003-6.94-.826-4.328-.497-7.905.993-10.753 1.49-2.849 3.554-5.33 6.183-7.458a51.04 51.04 0 0112.916-7.677c4.708-1.94 9.63-3.412 14.765-4.445a119.647 119.647 0 0115.774-2.05A246.557 246.557 0 01118.486 0c3.034 0 6.206.078 9.492.226 3.294.15 6.45.321 9.492.517 3.034.188 5.808.368 8.323.509 2.514.156 4.555.266 6.121.344 2.018.086 3.501.422 4.471 1.025.963.61 1.598 1.675 1.896 3.193.252 1.291-.283 2.316-1.582 3.075-1.3.752-3.539 1.135-6.733 1.135-2.293 0-4.594-.094-6.886-.29a89.707 89.707 0 00-7.009-.281c-2.292 0-4.379.555-6.236 1.65-1.865 1.104-3.592 2.56-5.159 4.383-1.574 1.816-2.98 3.89-4.203 6.206a81.788 81.788 0 00-3.309 7.058 91.77 91.77 0 00-2.599 7.06c-.741 2.316-1.383 4.342-1.941 6.087a50.743 50.743 0 014.448-.29c1.582-.038 3.065-.242 4.433-.625 1.368-.376 2.568-.978 3.592-1.824 1.024-.837 1.681-2.042 1.972-3.638a163.36 163.36 0 015.991-.345c2.026-.078 4.036-.117 6.03-.117a327.861 327.861 0 00-6.259 5.861A61.087 61.087 0 00127 47.344a45.495 45.495 0 00-4.662 7.285c-1.322 2.583-2.285 5.345-2.912 8.303h-.886a74.6 74.6 0 012.162-10.752 78.115 78.115 0 013.531-9.962c-.711.157-1.597.282-2.644.407a79.578 79.578 0 01-3.279.282c-1.138.078-2.231.156-3.294.227a37.505 37.505 0 01-2.697.117 238.55 238.55 0 01-6.413 14.344c-2.262 4.633-5.005 8.702-8.215 12.24-3.21 3.521-7.062 6.354-11.548 8.475-4.479 2.128-9.95 3.192-16.393 3.192-2.217 0-4.7-.281-7.444-.853a33.293 33.293 0 01-7.85-2.676 23.083 23.083 0 01-6.587-4.781c-1.903-1.972-3.118-4.36-3.653-7.168-.405-2.121-.138-4 .81-5.635.94-1.628 2.423-2.441 4.417-2.441 1.628 0 3.096.477 4.387 1.416 1.292.947 2.11 2.3 2.446 4.038.214 1.135.092 2.222-.382 3.24-.474 1.025-1.399 1.612-2.774 1.768.55 2.113 1.367 3.944 2.43 5.463 1.07 1.518 2.346 2.73 3.813 3.638 1.468.908 3.096 1.573 4.884 1.996a23.62 23.62 0 005.457.626c4.96 0 9.102-1.229 12.404-3.702 3.301-2.457 6.106-5.532 8.399-9.21 2.3-3.678 4.234-7.685 5.808-12.012 1.574-4.32 3.126-8.311 4.654-11.95h-4.86v-.031z" fill="#CBE1ED"/><path d="M90.093 82.221c.367-1.37.948-2.606 1.727-3.701a8.902 8.902 0 012.89-2.622c1.146-.642 2.498-.97 4.057-.97 1.483 0 2.828.438 4.051 1.307 1.223.868 1.834 2.144 1.834 3.819 0 2.05-.726 3.623-2.17 4.726-1.445 1.096-3.096 1.683-4.945 1.76a13.727 13.727 0 00-.719 3.194 31.63 31.63 0 00-.168 3.185c0 2.574.612 4.765 1.827 6.542a13.72 13.72 0 004.669 4.265c1.888 1.064 3.982 1.847 6.283 2.332 2.292.493 4.478.743 6.549.743 3.707 0 6.909-.689 9.615-2.05a21.75 21.75 0 006.947-5.525c1.926-2.316 3.5-4.946 4.723-7.904 1.23-2.966 2.186-6.072 2.896-9.336a81.435 81.435 0 001.498-9.844c.298-3.302.52-6.386.673-9.273.221-5.236.924-10.197 2.109-14.908 1.185-4.703 2.942-8.827 5.281-12.349 2.331-3.529 5.258-6.315 8.781-8.373 3.516-2.043 7.727-3.068 12.618-3.068 2.071 0 4.097.212 6.053.626 1.964.415 3.691 1.12 5.166 2.105a12.125 12.125 0 013.615 3.702c.925 1.479 1.391 3.318 1.391 5.517 0 1.823-.359 3.357-1.054 4.61-.711 1.251-1.636 2.237-2.782 2.957-1.147.72-2.484 1.252-4.005 1.597a21.273 21.273 0 01-4.723.508c1.039-1.737 1.834-3.443 2.392-5.118.558-1.666.833-3.568.833-5.697 0-2.88-.757-5.172-2.277-6.886-1.514-1.706-3.501-2.559-5.946-2.559-2.889 0-5.281.72-7.169 2.168-1.888 1.44-3.462 3.396-4.723 5.861-1.261 2.465-2.216 5.345-2.889 8.647a134.632 134.632 0 00-1.666 10.47 253.195 253.195 0 00-1.116 11.332 274.461 274.461 0 01-1.108 11.378c-.367 3.264-1.223 6.785-2.56 10.58-1.33 3.796-3.371 7.349-6.107 10.643-2.743 3.295-6.32 6.049-10.73 8.248-4.409 2.199-9.874 3.303-16.393 3.303a34.72 34.72 0 01-9.446-1.307c-3.118-.877-5.877-2.223-8.285-4.038-2.407-1.823-4.348-4.1-5.83-6.824-1.476-2.731-2.225-5.924-2.225-9.563 0-1.44.191-2.848.558-4.21zm-21.43 69.641c.673-.72 1.544-1.088 2.614-1.088 1.43 0 2.492.486 3.172 1.456.382.548.588 1.088.627 1.643H73.28c-.123-.422-.276-.743-.467-.954-.328-.384-.81-.572-1.436-.572-.642 0-1.14.274-1.49.814-.36.54-.52 1.299-.505 2.285.023.986.237 1.73.634 2.215.405.493.902.735 1.498.735.62 0 1.078-.211 1.399-.633.175-.227.313-.564.42-1.018h1.78c-.13.963-.504 1.738-1.123 2.34-.619.603-1.421.9-2.407.9-1.223 0-2.193-.407-2.912-1.213-.718-.822-1.093-1.933-1.13-3.357-.024-1.534.35-2.716 1.123-3.553zm19.359 7.098c-.634.688-1.559 1.025-2.79 1.025-1.23 0-2.178-.337-2.843-1.025-.894-.838-1.352-2.051-1.39-3.631-.039-1.612.366-2.825 1.215-3.631.634-.681 1.559-1.026 2.79-1.026 1.23 0 2.177.345 2.842 1.026.887.806 1.345 2.019 1.384 3.631.045 1.58-.36 2.793-1.208 3.631zm-1.154-1.339c.405-.54.596-1.299.573-2.292-.023-.986-.252-1.746-.68-2.286-.428-.539-1.001-.806-1.712-.806-.71 0-1.276.267-1.681.806-.413.54-.604 1.3-.581 2.293.023.994.252 1.753.688 2.293.435.54 1.009.806 1.72.806.71-.008 1.268-.274 1.673-.814zm9.852-.594c.06.399.183.704.351.907.306.36.818.54 1.544.54.436 0 .78-.047 1.047-.14.504-.188.757-.525.741-1.026a.775.775 0 00-.39-.673c-.252-.156-.657-.289-1.2-.407l-.94-.211c-.916-.203-1.55-.43-1.895-.673-.588-.407-.894-1.041-.917-1.901-.015-.791.252-1.448.803-1.965.55-.516 1.383-.774 2.476-.774.917 0 1.704.242 2.361.735.658.493 1.017 1.205 1.07 2.144h-1.727c-.046-.532-.283-.907-.718-1.126-.29-.149-.65-.22-1.078-.22-.474 0-.848.094-1.131.29a.888.888 0 00-.405.798.781.781 0 00.435.704c.184.102.566.227 1.155.368l1.513.368c.665.164 1.169.376 1.505.642.52.414.795 1.009.81 1.792.023.806-.267 1.471-.863 2.003s-1.445.798-2.553.798c-1.13 0-2.025-.258-2.69-.782-.665-.525-1.001-1.244-1.024-2.16h1.72v-.031zm16.996-6.08h2.583l.207 8.796h-1.674l-.145-5.948c0-.172-.008-.407-.008-.72-.008-.305-.008-.547-.015-.712l-1.452 7.38h-1.75l-1.789-7.38c0 .165.015.407.023.712.008.313.015.548.023.72l.138 5.948h-1.674l-.206-8.796h2.613l1.728 6.918 1.398-6.918zm15.415 1.557h-4.548l.046 1.863h4.173l.038 1.533h-4.173l.054 2.262h4.754l.038 1.581h-6.512l-.206-8.796h6.305l.031 1.557zm12.595-1.557l.038 1.557h-2.567l.168 7.239h-1.804l-.168-7.239h-2.583l-.039-1.557h6.955zm7.665 8.796h-1.788l-.207-8.796h1.781l.214 8.796zm7.092-7.881c.672-.72 1.544-1.088 2.614-1.088 1.429 0 2.483.486 3.171 1.456.382.548.589 1.088.627 1.643h-1.796c-.122-.422-.275-.743-.466-.954-.329-.384-.81-.572-1.437-.572-.642 0-1.139.274-1.49.814-.36.54-.528 1.299-.505 2.285.023.986.237 1.73.642 2.215.398.493.902.735 1.498.735.619 0 1.078-.211 1.399-.633.168-.227.313-.564.42-1.018h1.781c-.13.963-.505 1.738-1.124 2.34-.619.603-1.421.9-2.407.9-1.223 0-2.194-.407-2.912-1.213-.718-.822-1.093-1.933-1.131-3.357-.031-1.534.336-2.716 1.116-3.553zm-94.392 1.782H.5v2.982h61.591v-2.982zm104.977 0v2.982H229.5v-2.982h-62.432zm-8.314-65.257l-.611 2.981h71.358v-2.981h-70.747z" fill="#CBE1ED"/></svg>