<svg width="228" height="140" fill="none" xmlns="http://www.w3.org/2000/svg"><g opacity=".9" fill="#CBE1ED"><path d="M88.04 55.95l-.344-1.762h7.366c1.743-5.59 3.86-10.756 6.313-15.476 2.462-4.71 5.441-8.904 8.947-12.59 3.495-3.687 7.568-6.797 12.229-9.35 4.651-2.562 10.051-4.466 16.182-5.742l-.061-.294a638.22 638.22 0 01-19.282-.294 607.923 607.923 0 00-19.292-.293c-4.62 0-9.636.172-15.067.516-5.44.345-10.862.952-16.292 1.833-5.431.892-10.579 2.067-15.442 3.535-4.864 1.48-9.099 3.343-12.675 5.591-3.587 2.26-6.283 4.933-8.066 8.033-1.803 3.089-2.29 6.756-1.459 10.97.557 2.845 1.834 5.306 3.81 7.373 1.976 2.066 4.276 3.747 6.9 5.084a32.405 32.405 0 008.288 2.867c2.928.597 5.603.891 8.066.891 5.106 0 9.686-.638 13.77-1.914 4.073-1.276 7.416-3.17 10.01-5.672 2.604-2.512 4.407-5.55 5.42-9.136 1.014-3.576 1.065-7.729.132-12.438-.212-1.084-.374-1.925-.496-2.502a8.21 8.21 0 00-.466-1.621h1.773c.152.78.324 1.52.507 2.208.192.689.344 1.378.476 2.066.983 5.014.902 9.704-.253 14.07-1.156 4.375-3.131 8.153-5.948 11.354-2.817 3.19-6.272 5.722-10.376 7.576-4.103 1.874-8.653 2.806-13.658 2.806-3.05 0-6.16-.476-9.342-1.408a33.535 33.535 0 01-8.896-4.052 27.017 27.017 0 01-7.123-6.624c-1.996-2.654-3.324-5.642-3.982-8.984-1.094-5.601-.659-10.23 1.317-13.917 1.976-3.687 4.712-6.898 8.197-9.653 5.178-4.122 10.892-7.434 17.124-9.936 6.241-2.512 12.767-4.416 19.575-5.753 6.81-1.327 13.79-2.208 20.913-2.654A334.764 334.764 0 01117.708 0c4.023 0 8.227.1 12.584.293 4.367.193 8.552.416 12.585.669 4.022.243 7.7.476 11.034.658 3.333.203 6.039.344 8.116.446 2.675.111 4.64.547 5.927 1.327 1.277.79 2.118 2.167 2.513 4.132.334 1.671-.375 2.998-2.097 3.98-1.723.973-4.692 1.47-8.927 1.47-3.04 0-6.09-.122-9.129-.375-3.05-.233-6.14-.365-9.292-.365-3.039 0-5.805.72-8.268 2.137-2.472 1.428-4.762 3.312-6.839 5.672-2.087 2.35-3.951 5.034-5.573 8.032a104.793 104.793 0 00-4.387 9.137 117.296 117.296 0 00-3.445 9.136c-.983 2.998-1.834 5.621-2.573 7.88a68.805 68.805 0 015.897-.375c2.097-.05 4.063-.314 5.876-.81 1.814-.486 3.405-1.266 4.762-2.36 1.358-1.084 2.23-2.644 2.615-4.71a214.819 214.819 0 0115.938-.597 429.927 429.927 0 00-8.299 7.586 79.911 79.911 0 00-7.731 8.316 58.795 58.795 0 00-6.18 9.43c-1.753 3.342-3.03 6.917-3.861 10.746h-1.175c.628-4.8 1.581-9.45 2.867-13.917a99.552 99.552 0 014.681-12.894c-.942.203-2.117.365-3.505.527a107.74 107.74 0 01-4.347.365c-1.51.1-2.959.202-4.367.293a50.977 50.977 0 01-3.577.152 305.65 305.65 0 01-8.501 18.566c-2.999 5.997-6.636 11.264-10.892 15.842-4.256 4.558-9.362 8.224-15.31 10.969-5.937 2.755-13.192 4.133-21.734 4.133-2.938 0-6.231-.365-9.869-1.104a44.904 44.904 0 01-10.405-3.464c-3.304-1.57-6.222-3.637-8.735-6.189-2.522-2.552-4.133-5.642-4.843-9.278-.537-2.745-.182-5.176 1.074-7.293 1.247-2.106 3.212-3.16 5.857-3.16 2.158 0 4.103.618 5.816 1.833 1.712 1.226 2.796 2.978 3.242 5.227.284 1.469.122 2.876-.507 4.193-.628 1.327-1.854 2.087-3.678 2.29.73 2.734 1.814 5.104 3.223 7.07 1.418 1.964 3.11 3.534 5.056 4.709 1.945 1.175 4.103 2.036 6.474 2.583 2.36.547 4.782.81 7.234.81 6.576 0 12.068-1.59 16.445-4.79 4.377-3.181 8.096-7.162 11.136-11.922 3.05-4.76 5.613-9.947 7.7-15.548 2.087-5.591 4.144-10.757 6.17-15.467h-6.443v-.04z"/><path d="M80.066 106.424a14.653 14.653 0 012.29-4.791 11.707 11.707 0 013.83-3.393c1.52-.83 3.313-1.256 5.38-1.256 1.966 0 3.749.567 5.37 1.691 1.621 1.125 2.432 2.776 2.432 4.943 0 2.654-.963 4.69-2.878 6.118-1.915 1.418-4.103 2.178-6.555 2.279a17.398 17.398 0 00-.953 4.133 39.947 39.947 0 00-.223 4.122c0 3.332.81 6.168 2.422 8.468a18.031 18.031 0 006.19 5.52c2.504 1.377 5.28 2.39 8.33 3.018 3.039.638 5.937.962 8.683.962 4.914 0 9.16-.891 12.746-2.653a28.717 28.717 0 009.211-7.151c2.553-2.998 4.64-6.402 6.261-10.23 1.632-3.839 2.898-7.86 3.841-12.084a103.07 103.07 0 001.985-12.742 315.8 315.8 0 00.892-12.003c.294-6.776 1.226-13.197 2.797-19.295 1.57-6.087 3.901-11.425 7.001-15.983 3.09-4.568 6.971-8.174 11.642-10.838 4.661-2.644 10.244-3.97 16.728-3.97 2.746 0 5.431.273 8.025.81 2.604.537 4.894 1.448 6.85 2.725 1.965 1.276 3.566 2.876 4.792 4.79 1.226 1.915 1.844 4.295 1.844 7.141 0 2.36-.476 4.345-1.398 5.966-.942 1.62-2.168 2.897-3.688 3.829-1.52.932-3.293 1.62-5.309 2.066-2.007.446-4.104.658-6.262.658 1.378-2.248 2.432-4.456 3.171-6.624.74-2.157 1.105-4.619 1.105-7.374 0-3.727-1.003-6.695-3.02-8.913-2.006-2.208-4.64-3.312-7.883-3.312-3.83 0-7.001.932-9.504 2.806-2.502 1.863-4.59 4.395-6.262 7.586-1.671 3.19-2.938 6.918-3.83 11.192a170.595 170.595 0 00-2.208 13.553 319.972 319.972 0 00-1.48 14.666 345.81 345.81 0 01-1.469 14.727c-.486 4.224-1.621 8.782-3.394 13.695-1.763 4.912-4.469 9.51-8.096 13.775-3.637 4.264-8.379 7.829-14.226 10.675-5.846 2.847-13.091 4.275-21.733 4.275-4.226 0-8.39-.557-12.524-1.692-4.134-1.134-7.792-2.876-10.983-5.226-3.192-2.36-5.766-5.308-7.731-8.832-1.956-3.535-2.949-7.668-2.949-12.378 0-1.864.254-3.687.74-5.449z"/></g></svg>