<svg width="150" height="40" fill="none" xmlns="http://www.w3.org/2000/svg"><path d="M.005.996v1.668H1.53a4 4 0 011.868.457c.379.206.626.447.732.703.117.287.258.995.258 2.738v18.734c0 2.135-.283 2.809-.444 3.014-.49.598-1.283.89-2.42.89H0v1.668h14.032V29.2h-1.545a4.05 4.05 0 01-1.873-.463c-.389-.205-.641-.442-.752-.703-.117-.286-.258-.99-.258-2.738V16.63h5.145c.95 0 1.662.116 2.116.347a2.4 2.4 0 011.035 1.01c.258.462.394 1.225.41 2.275l.004.432h1.707v-10.69H18.36l-.046.382c-.181 1.466-.535 2.441-1.045 2.903-.51.457-1.358.689-2.52.689H9.604V3.453h6.317c1.535 0 2.676.135 3.383.402A4.071 4.071 0 0121.041 5.1c.48.582.914 1.537 1.288 2.828l.09.316H24L23.667.996H.005zm33.693 28.002a1.426 1.426 0 01-.642-.7c-.087-.188-.23-.723-.23-2.22V0h-1.463L25 2.569l.743 1.507.35-.139c.93-.367 1.52-.406 1.856-.129.081.065.23.258.336.774.067.322.143 1.27.143 3.932v17.558c0 1.404-.129 1.998-.24 2.247-.148.337-.34.57-.59.704-.148.084-.56.223-1.649.223h-.417v1.621H36v-1.621h-.417c-1.175.005-1.674-.134-1.885-.248zm13.827-18.973a10.49 10.49 0 00-5.13 1.343c-1.617.9-2.94 2.298-3.92 4.164C37.498 17.383 37 19.28 37 21.162c0 2.588.819 4.947 2.436 7.027 1.932 2.481 4.566 3.742 7.835 3.742 1.998 0 3.84-.488 5.471-1.444 1.638-.961 2.94-2.41 3.87-4.297.92-1.871 1.388-3.752 1.388-5.583 0-2.619-.854-4.973-2.537-6.997-1.988-2.38-4.658-3.585-7.938-3.585zm.727 19.48c-1.82 0-3.254-.955-4.383-2.918-1.159-2.014-1.749-4.45-1.749-7.246 0-1.719.24-3.138.712-4.216.458-1.042 1.058-1.78 1.78-2.18.742-.418 1.485-.626 2.207-.626 1.54 0 2.77.625 3.773 1.912 1.52 1.932 2.293 4.632 2.293 8.039 0 2.695-.448 4.602-1.332 5.67-.87 1.052-1.953 1.566-3.3 1.566z" fill="#02153E"/><path d="M72.068 10.844c-.607-.544-1.381-.819-2.294-.819-1.647 0-3.25 1.119-4.779 3.33v-3.33h-1.356L57 12.577l.459 1.597.429-.16c.898-.334 1.662-.419 2.1-.084.173.135.297.37.37.694.06.274.134 1.183.134 3.954v7.544c0 1.513-.07 1.863-.094 1.938-.118.394-.31.669-.587.838-.429.27-1.124.405-2.071.405h-.43v1.632h11.212v-1.632h-.43c-.838 0-1.48-.115-1.898-.335-.405-.21-.681-.47-.834-.769-.247-.489-.37-1.243-.37-2.246V16.73c.661-1.229 1.302-2.122 1.914-2.656.222-.205.424-.315.572-.315.074 0 .38.045 1.164.644 1.48 1.129 2.752 1.029 3.66.12a2.35 2.35 0 00.7-1.713c.005-.743-.31-1.408-.932-1.967zm17.379 12.217c-.626 1.641-1.405 2.804-2.307 3.465-.903.655-1.977.99-3.205.99-1.878 0-3.47-.772-4.87-2.362-1.317-1.498-2.012-3.576-2.072-6.177h13.968v-.442c0-2.566-.78-4.644-2.318-6.188-1.533-1.54-3.51-2.322-5.881-2.322-2.786 0-5.138 1.001-6.981 2.977C73.937 14.973 73 17.742 73 21.237c0 3.231.912 5.848 2.712 7.778 1.804 1.936 4.003 2.916 6.542 2.916 2.347 0 4.334-.864 5.896-2.57 1.539-1.682 2.48-3.572 2.806-5.63l.044-.294-1.366-.864-.187.488zm-7.923-10.617c.71 0 1.405.213 2.061.624.66.422 1.144.98 1.48 1.712.181.402.315 1.093.389 2.053h-8.411c.207-1.31.705-2.357 1.494-3.114.892-.859 1.868-1.275 2.987-1.275zm21.641 6.959l-3.3-1.535c-1.364-.63-2.267-1.22-2.696-1.764-.419-.498-.62-1.082-.62-1.789 0-.513.262-.98.807-1.428.565-.468 1.332-.702 2.276-.702 1.272 0 2.327.351 3.139 1.042.823.702 1.519 2.084 2.064 4.107l.086.325h1.519v-7.634h-1.448l-.121.24c-.212.406-.328.502-.348.518-.031.025-.117.066-.303.066-.121 0-.47-.04-1.419-.31-1.196-.34-2.23-.514-3.078-.514-1.959 0-3.584.595-4.83 1.764C93.636 12.969 93 14.452 93 16.201c0 1.357.379 2.5 1.115 3.395.727.894 2.18 1.855 4.447 2.932 2.135 1.017 3.568 1.856 4.26 2.501.641.595.954 1.311.954 2.186 0 .696-.273 1.275-.833 1.778-.581.514-1.312.768-2.251.768-1.383 0-2.594-.468-3.715-1.428-1.11-.956-1.872-2.41-2.271-4.32l-.076-.351h-1.54v7.96h1.45l.12-.235c.152-.29.298-.325.425-.325.272 0 .64.066 1.11.203 1.655.442 3.154.666 4.451.666 1.853 0 3.548-.59 5.047-1.748 1.53-1.184 2.307-2.77 2.307-4.712.005-2.53-1.625-4.564-4.835-6.068zm46.402 9.538c-1.126 0-1.61-.132-1.814-.24a1.323 1.323 0 01-.608-.622c-.124-.255-.269-.857-.269-2.278v-8.152c0-1.794-.169-3.102-.518-3.993-.508-1.274-1.205-2.21-2.082-2.778-.872-.564-1.918-.853-3.114-.853-2.057 0-4.209 1.137-6.411 3.376v-3.376h-1.475l-6.651 2.524.683 1.528.379-.137c.946-.338 1.659-.377 2.002-.108.085.064.244.255.359.78.07.322.159 1.293.159 4.1V25.8c0 1.607-.254 2.288-.463 2.572-.279.377-.867.563-1.758.563h-.837a13.75 13.75 0 001.18-1.313l.095-.117v-2.308l-.732.681c-1.076 1.01-1.535 1.353-1.719 1.46-.199.108-.513.162-.732-.02-.025-.019-.14-.131-.22-.568-.049-.264-.104-1.043-.104-3.272v-6.477c0-1.925-.145-3.185-.439-3.846-.458-1.004-1.175-1.754-2.142-2.23-1.215-.597-2.78-.9-4.653-.9-2.451 0-4.394.533-5.774 1.592-1.414 1.082-2.132 2.302-2.132 3.63 0 .735.214 1.333.643 1.774.433.445.991.676 1.664.676.682 0 1.245-.216 1.679-.647.428-.431.647-1.029.647-1.798l-.045-1.196c0-.485.23-.91.698-1.303.468-.402 1.121-.602 1.948-.602 1.116 0 1.933.303 2.501.92.567.628.856 1.848.856 3.636v.446c-3.367 1.156-5.823 2.155-7.303 2.974-1.564.867-2.685 1.812-3.328 2.812-.488.75-.737 1.641-.737 2.65 0 1.583.503 2.886 1.5 3.866.996.985 2.271 1.48 3.796 1.48.961 0 1.883-.187 2.74-.56.508-.225 1.619-.95 3.387-2.214.095.843.339 1.47.733 1.901.513.564 1.205.848 2.062.848 1.26 0 2.566-.652 3.891-1.935v1.563h10.965v-1.603h-.434c-1.365 0-1.848-.146-2.017-.235-.284-.147-.504-.377-.678-.705-.06-.108-.194-.544-.194-2.2v-9.901c1.624-1.632 3.253-2.455 4.852-2.455.991 0 1.669.319 2.072.975.439.715.663 1.916.663 3.562v7.82c0 1.474-.055 1.782-.075 1.846-.124.436-.329.755-.627.965-.21.147-.678.324-1.744.324h-.857v1.602H150v-1.602h-.433v.01zm-32.905-8.059c.578-.309 1.823-.823 3.711-1.528V25.8c-1.678 1.24-3.034 1.872-4.025 1.872-.717 0-1.335-.28-1.893-.858-.563-.583-.837-1.303-.837-2.2 0-.705.219-1.337.673-1.935.458-.612 1.255-1.215 2.371-1.798zm-71.92 13.795c.444-.467 1.02-.705 1.726-.705.943 0 1.644.314 2.093.944.252.355.389.705.414 1.066h-1.186c-.08-.274-.181-.483-.308-.62-.216-.248-.534-.37-.948-.37-.424 0-.752.178-.984.528-.237.35-.343.842-.333 1.482.016.64.157 1.122.42 1.436.267.32.594.478.988.478.409 0 .711-.137.923-.412.116-.147.207-.365.278-.66H49c-.086.625-.333 1.127-.742 1.518-.408.391-.938.584-1.589.584-.807 0-1.447-.264-1.922-.787-.474-.533-.721-1.253-.746-2.177-.015-.995.232-1.762.741-2.305zm12.523 4.578c-.385.442-.947.658-1.693.658-.747 0-1.323-.216-1.726-.658-.543-.537-.821-1.315-.844-2.33-.024-1.034.222-1.812.737-2.329.385-.437.947-.657 1.693-.657.747 0 1.323.22 1.726.657.538.517.817 1.295.84 2.33.028 1.014-.218 1.792-.733 2.33zm-.7-.858c.245-.347.361-.834.347-1.471-.014-.633-.153-1.12-.413-1.466a1.234 1.234 0 00-1.039-.517c-.431 0-.775.17-1.02.517-.25.346-.367.833-.353 1.47.014.638.153 1.125.418 1.472.264.346.612.517 1.043.517.432-.005.77-.176 1.016-.522zm6.641-.385c.042.256.128.452.246.583.214.231.573.347 1.082.347.306 0 .547-.03.734-.09.354-.121.53-.338.52-.66a.493.493 0 00-.273-.432c-.177-.1-.46-.186-.841-.261l-.66-.136c-.642-.13-1.087-.277-1.328-.433-.413-.261-.627-.669-.643-1.222a1.55 1.55 0 01.563-1.262c.385-.332.97-.498 1.735-.498.644 0 1.195.156 1.656.473.461.317.713.774.75 1.378h-1.21c-.033-.342-.199-.584-.504-.724-.204-.096-.456-.141-.756-.141-.332 0-.595.06-.793.186a.557.557 0 00-.284.513c.006.201.107.352.306.453.128.065.396.145.809.236l1.06.236c.467.106.82.242 1.056.413.365.266.557.648.568 1.151.016.518-.187.946-.605 1.288-.418.342-1.013.513-1.79.513-.793 0-1.42-.166-1.886-.503-.466-.337-.702-.8-.718-1.388h1.206v-.02zm10.832-3.986h1.817L76 40.001h-1.177l-.103-4.04c0-.117-.005-.276-.005-.489-.005-.207-.005-.372-.01-.484l-1.022 5.013h-1.231l-1.258-5.013c0 .112.01.277.016.484.005.213.01.372.016.49L71.323 40h-1.178L70 34.026h1.839l1.215 4.699.984-4.699zm9.734 1.058h-2.707l.027 1.265h2.485l.023 1.042h-2.485l.032 1.536h2.83L84 40.001h-3.877L80 34.026h3.754l.018 1.058zm9.201-1.058L93 35.084h-1.836l.12 4.917h-1.29l-.12-4.917h-1.847L88 34.026h4.973zM97 40h-.897L96 34.027h.893L97 40.001zm4.738-5.323c.444-.467 1.019-.705 1.725-.705.943 0 1.639.314 2.093.944.252.355.388.705.414 1.066h-1.186c-.08-.274-.181-.483-.307-.62-.217-.248-.535-.37-.949-.37-.423 0-.751.178-.983.528-.237.35-.348.842-.333 1.482.015.64.156 1.122.423 1.436.263.32.596.478.989.478.409 0 .711-.137.923-.412.111-.147.207-.365.278-.66H106c-.086.625-.333 1.127-.742 1.518-.408.391-.938.584-1.588.584-.808 0-1.448-.264-1.922-.787-.474-.533-.722-1.253-.747-2.177-.02-.995.222-1.762.737-2.305zM40 35.93H0v1.992h40v-1.991zm69 0v1.992h41v-1.991h-41z" fill="#02153E"/></svg>