<svg width="230" height="161" fill="none" xmlns="http://www.w3.org/2000/svg"><path d="M59.741 88.887H0v2.981h59.741v-2.981zM.03 99.734v2.598h2.318c1.006 0 1.965.243 2.84.712.576.321.952.697 1.113 1.096.177.446.392 1.549.392 4.265v29.181c0 3.325-.43 4.374-.676 4.695-.744.931-1.95 1.385-3.676 1.385H.022v2.598h21.332v-2.598h-2.35a6.041 6.041 0 01-2.847-.72c-.59-.321-.975-.689-1.144-1.096-.176-.446-.391-1.541-.391-4.264v-13.499h7.822c1.443 0 2.525.18 3.216.54.675.352 1.19.868 1.573 1.573.392.72.6 1.909.622 3.545l.008.673h2.594v-16.653h-2.525l-.07.595c-.275 2.285-.813 3.803-1.588 4.523-.775.712-2.065 1.072-3.83 1.072h-7.822v-16.394h9.602c2.334 0 4.069.211 5.143.626a6.197 6.197 0 012.64 1.941c.73.907 1.39 2.394 1.958 4.405l.138.493h2.403l-.507-11.292H.03zm51.997 43.571a2.266 2.266 0 01-1.029-1.104c-.138-.297-.368-1.142-.368-3.506V97.542h-2.342l-10.185 4.054 1.19 2.378.56-.219c1.489-.579 2.433-.641 2.97-.203.13.102.369.407.538 1.221.107.508.23 2.003.23 6.205v27.71c0 2.214-.208 3.153-.384 3.544-.238.533-.545.9-.944 1.112-.238.133-.898.352-2.64.352h-.668v2.559H55.71v-2.559h-.668c-1.88.008-2.679-.211-3.016-.391zm20.295-29.814c-2.71 0-5.32.696-7.745 2.066-2.441 1.385-4.437 3.537-5.918 6.409-1.474 2.848-2.226 5.767-2.226 8.662 0 3.983 1.235 7.614 3.676 10.815 2.917 3.819 6.893 5.759 11.829 5.759 3.016 0 5.795-.751 8.26-2.222 2.47-1.479 4.436-3.709 5.84-6.613 1.39-2.879 2.096-5.775 2.096-8.592 0-4.03-1.29-7.653-3.83-10.767-3.002-3.663-7.031-5.517-11.982-5.517zm1.097 29.979c-2.748 0-4.912-1.472-6.616-4.492-1.75-3.099-2.64-6.847-2.64-11.151 0-2.645.36-4.829 1.074-6.487.69-1.605 1.596-2.739 2.686-3.358 1.121-.641 2.242-.962 3.332-.962 2.326 0 4.183.962 5.695 2.942 2.295 2.974 3.462 7.129 3.462 12.372 0 4.148-.675 7.082-2.011 8.725-1.313 1.62-2.948 2.411-4.982 2.411z" fill="#02153E"/><path d="M111.239 114.782c-.944-.853-2.149-1.283-3.569-1.283-2.564 0-5.059 1.753-7.438 5.22v-5.22h-2.111l-10.332 3.999.714 2.504.668-.251c1.397-.524 2.586-.657 3.27-.133.268.212.46.58.575 1.088.092.431.208 1.855.208 6.198v11.824c0 2.371-.108 2.919-.146 3.036-.184.618-.484 1.049-.914 1.315-.668.422-1.75.634-3.224.634h-.667v2.558h17.447v-2.558h-.668c-1.305 0-2.303-.18-2.955-.525-.63-.328-1.059-.735-1.297-1.205-.384-.767-.576-1.948-.576-3.521v-14.454c1.029-1.925 2.026-3.325 2.978-4.163.346-.32.66-.493.891-.493.115 0 .591.071 1.811 1.01 2.303 1.768 4.283 1.612 5.696.188.721-.728 1.09-1.636 1.09-2.684.007-1.166-.484-2.207-1.451-3.084zm26.143 18.765c-.975 2.528-2.187 4.32-3.592 5.337-1.405 1.009-3.078 1.526-4.989 1.526-2.925 0-5.404-1.19-7.584-3.639-2.05-2.308-3.132-5.509-3.224-9.515h21.746v-.681c0-3.952-1.213-7.153-3.608-9.532-2.387-2.371-5.465-3.576-9.157-3.576-4.337 0-7.999 1.542-10.869 4.586-2.871 3.036-4.33 7.301-4.33 12.685 0 4.977 1.42 9.007 4.222 11.98 2.809 2.982 6.233 4.492 10.186 4.492 3.654 0 6.747-1.33 9.18-3.96 2.395-2.59 3.861-5.501 4.368-8.67l.069-.454-2.126-1.33-.292.751zm-12.335-16.355c1.105 0 2.188.329 3.209.963 1.028.649 1.78 1.51 2.302 2.637.284.618.492 1.682.607 3.161H118.07c.322-2.019 1.097-3.631 2.325-4.797 1.39-1.322 2.91-1.964 4.652-1.964zm32.47 10.753l-5.02-2.364c-2.073-.97-3.447-1.878-4.099-2.715-.637-.767-.944-1.667-.944-2.755 0-.79.399-1.51 1.228-2.198.86-.72 2.026-1.08 3.462-1.08 1.934 0 3.538.54 4.774 1.604 1.251 1.08 2.311 3.208 3.14 6.323l.13.501h2.31v-11.754h-2.202l-.185.368c-.322.626-.499.774-.529.798-.046.039-.177.102-.461.102-.184 0-.714-.063-2.157-.478-1.819-.524-3.393-.79-4.682-.79-2.978 0-5.45.915-7.346 2.715-1.911 1.816-2.878 4.101-2.878 6.793 0 2.089.575 3.85 1.696 5.227 1.105 1.377 3.316 2.856 6.762 4.515 3.247 1.565 5.427 2.856 6.479 3.85.975.916 1.451 2.019 1.451 3.365 0 1.072-.415 1.964-1.267 2.739-.883.79-1.996 1.182-3.423 1.182-2.104 0-3.946-.72-5.65-2.199-1.688-1.471-2.848-3.71-3.454-6.652l-.115-.54h-2.341v12.255h2.203l.184-.36c.23-.446.453-.501.645-.501.414 0 .975.102 1.688.313 2.518.681 4.798 1.025 6.771 1.025 2.817 0 5.396-.908 7.675-2.692 2.326-1.823 3.508-4.265 3.508-7.254.008-3.897-2.471-7.027-7.353-9.343zm71.753 15.759c-1.734 0-2.479-.211-2.794-.383-.437-.243-.744-.564-.936-.994-.192-.407-.415-1.369-.415-3.639v-13.021c0-2.864-.261-4.953-.798-6.378-.783-2.034-1.858-3.529-3.209-4.437-1.343-.9-2.955-1.361-4.797-1.361-3.17 0-6.486 1.815-9.879 5.391v-5.391h-2.272l-10.247 4.03 1.051 2.441.584-.219c1.458-.54 2.556-.602 3.086-.172.13.102.376.407.552 1.244.108.517.246 2.066.246 6.55v11.323c0 2.567-.392 3.655-.714 4.109-.43.602-1.336.9-2.71.9h-1.289a21.79 21.79 0 001.819-2.098l.146-.187v-3.686l-1.128 1.087c-1.658 1.613-2.365 2.16-2.649 2.332-.307.173-.79.259-1.128-.031-.038-.031-.215-.211-.338-.908-.077-.422-.161-1.666-.161-5.227v-10.345c0-3.075-.223-5.086-.675-6.143-.707-1.604-1.812-2.801-3.301-3.56-1.873-.955-4.283-1.44-7.169-1.44-3.777 0-6.77.853-8.897 2.543-2.18 1.729-3.285 3.678-3.285 5.799 0 1.173.33 2.128.99 2.832.668.712 1.528 1.08 2.564 1.08 1.052 0 1.919-.344 2.587-1.033.66-.688.998-1.643.998-2.872l-.069-1.909c0-.775.353-1.456 1.074-2.082.722-.641 1.727-.962 3.001-.962 1.72 0 2.979.485 3.854 1.471.875 1.002 1.32 2.95 1.32 5.806v.713c-5.189 1.846-8.973 3.443-11.253 4.75-2.41 1.385-4.137 2.895-5.127 4.491-.753 1.198-1.136 2.622-1.136 4.234 0 2.527.775 4.609 2.31 6.174 1.535 1.573 3.5 2.363 5.849 2.363 1.482 0 2.902-.297 4.222-.892.783-.36 2.494-1.518 5.219-3.537.146 1.346.522 2.348 1.129 3.036.79.9 1.857 1.354 3.178 1.354 1.942 0 3.953-1.041 5.994-3.091v2.496h16.895v-2.558h-.668c-2.103 0-2.848-.235-3.109-.376-.437-.235-.775-.603-1.043-1.127-.093-.172-.3-.869-.3-3.514v-15.815c2.503-2.605 5.013-3.92 7.477-3.92 1.527 0 2.571.509 3.193 1.557.675 1.143 1.021 3.06 1.021 5.689v12.489c0 2.356-.085 2.849-.116 2.951-.191.696-.506 1.205-.967 1.541-.322.235-1.044.517-2.686.517h-1.321v2.559h16.895v-2.559h-.668v.015zm-50.699-12.872c.891-.493 2.809-1.315 5.719-2.442v10.298c-2.587 1.98-4.675 2.99-6.202 2.99-1.106 0-2.058-.446-2.917-1.37-.868-.931-1.29-2.081-1.29-3.513 0-1.127.338-2.137 1.036-3.091.707-.979 1.935-1.941 3.654-2.872zM96.025 43.728l-.26-1.361h5.58c1.32-4.32 2.924-8.311 4.782-11.958 1.865-3.638 4.122-6.878 6.778-9.726 2.648-2.849 5.734-5.251 9.264-7.223 3.524-1.98 7.615-3.451 12.259-4.437l-.046-.227c-4.913 0-9.787-.078-14.607-.227a451.73 451.73 0 00-14.615-.227c-3.5 0-7.3.133-11.414.399-4.122.266-8.229.736-12.343 1.416-4.114.69-8.014 1.597-11.698 2.732-3.685 1.142-6.893 2.582-9.603 4.32-2.717 1.744-4.759 3.81-6.11 6.204-1.366 2.387-1.734 5.22-1.105 8.475.422 2.2 1.39 4.1 2.886 5.697 1.497 1.597 3.24 2.896 5.227 3.928a24.228 24.228 0 006.28 2.215c2.218.462 4.244.689 6.11.689 3.868 0 7.337-.493 10.43-1.48 3.087-.985 5.62-2.449 7.585-4.381 1.972-1.941 3.338-4.289 4.106-7.059.768-2.762.806-5.97.1-9.61-.161-.837-.284-1.486-.376-1.932a6.438 6.438 0 00-.353-1.252h1.343c.115.602.246 1.174.384 1.706.146.532.26 1.064.36 1.596.745 3.873.684 7.497-.191 10.87-.875 3.38-2.372 6.299-4.506 8.772-2.134 2.465-4.752 4.42-7.86 5.853-3.109 1.448-6.555 2.167-10.347 2.167-2.31 0-4.667-.367-7.077-1.087a25.174 25.174 0 01-6.74-3.13 20.629 20.629 0 01-5.396-5.118c-1.512-2.05-2.518-4.359-3.017-6.941-.829-4.328-.498-7.904.998-10.752 1.497-2.849 3.57-5.33 6.21-7.458a51.311 51.311 0 0112.972-7.676c4.729-1.941 9.672-3.412 14.83-4.445a120.667 120.667 0 0115.843-2.05A248.689 248.689 0 01118.5.5c3.048 0 6.233.078 9.534.227 3.308.149 6.478.32 9.533.516 3.048.188 5.834.368 8.359.509 2.526.157 4.575.266 6.149.344 2.026.086 3.515.423 4.49 1.025.967.61 1.604 1.675 1.904 3.193.253 1.291-.284 2.317-1.589 3.076-1.305.75-3.554 1.134-6.763 1.134a81.78 81.78 0 01-6.916-.29 90.43 90.43 0 00-7.038-.281c-2.303 0-4.399.556-6.264 1.651-1.873 1.104-3.608 2.559-5.181 4.382-1.581 1.816-2.994 3.89-4.222 6.206a81.95 81.95 0 00-3.324 7.058 91.936 91.936 0 00-2.609 7.059c-.745 2.316-1.39 4.343-1.95 6.088a51.134 51.134 0 014.467-.29c1.589-.039 3.078-.242 4.452-.626 1.374-.375 2.579-.978 3.608-1.823 1.029-.837 1.689-2.042 1.98-3.639a163.88 163.88 0 016.018-.344c2.034-.078 4.053-.117 6.057-.117a325.55 325.55 0 00-6.287 5.86 61.227 61.227 0 00-5.857 6.425 45.538 45.538 0 00-4.682 7.286c-1.328 2.582-2.295 5.344-2.924 8.302h-.891a74.467 74.467 0 012.172-10.752 77.706 77.706 0 013.547-9.961c-.714.156-1.605.281-2.656.407a80.149 80.149 0 01-3.293.281c-1.144.079-2.242.157-3.308.227-1.06.078-1.973.118-2.71.118a238.716 238.716 0 01-6.44 14.343c-2.272 4.633-5.028 8.702-8.252 12.24-3.224 3.52-7.092 6.353-11.598 8.474-4.498 2.129-9.994 3.193-16.465 3.193-2.226 0-4.72-.282-7.476-.853a33.536 33.536 0 01-7.883-2.676 23.176 23.176 0 01-6.617-4.782c-1.911-1.972-3.132-4.358-3.669-7.168-.407-2.12-.138-3.998.814-5.634.944-1.628 2.433-2.441 4.437-2.441 1.635 0 3.108.477 4.406 1.416 1.297.947 2.118 2.3 2.456 4.038.215 1.135.092 2.222-.384 3.24-.476 1.025-1.405 1.612-2.786 1.768.552 2.113 1.374 3.944 2.44 5.462 1.075 1.518 2.357 2.731 3.83 3.639 1.474.908 3.11 1.573 4.906 1.995 1.788.423 3.623.626 5.48.626 4.982 0 9.142-1.228 12.458-3.701 3.316-2.457 6.133-5.532 8.436-9.21 2.31-3.678 4.252-7.685 5.834-12.012 1.58-4.32 3.14-8.31 4.674-11.95h-4.882v-.03z" fill="#02153E"/><path d="M89.984 82.72a11.42 11.42 0 011.735-3.701 8.926 8.926 0 012.901-2.622c1.152-.641 2.51-.97 4.076-.97 1.489 0 2.84.438 4.069 1.307 1.228.868 1.842 2.144 1.842 3.819 0 2.05-.729 3.623-2.18 4.726-1.451 1.096-3.109 1.683-4.967 1.76a13.678 13.678 0 00-.721 3.194 31.514 31.514 0 00-.169 3.184c0 2.575.614 4.766 1.835 6.542a13.739 13.739 0 004.69 4.265c1.896 1.064 3.999 1.847 6.309 2.332 2.303.493 4.498.744 6.578.744 3.723 0 6.939-.689 9.657-2.051a21.8 21.8 0 006.977-5.524c1.934-2.317 3.516-4.946 4.744-7.904 1.236-2.966 2.195-6.072 2.909-9.336a81.05 81.05 0 001.504-9.844c.3-3.302.522-6.385.676-9.273.222-5.235.929-10.196 2.118-14.907 1.19-4.703 2.956-8.827 5.304-12.349 2.342-3.529 5.281-6.315 8.82-8.373 3.531-2.042 7.76-3.067 12.673-3.067 2.08 0 4.114.211 6.079.626 1.973.415 3.708 1.119 5.189 2.105a12.168 12.168 0 013.631 3.701c.928 1.48 1.397 3.318 1.397 5.517 0 1.823-.361 3.357-1.06 4.61-.713 1.251-1.642 2.237-2.794 2.957-1.151.72-2.494 1.252-4.022 1.597-1.52.344-3.108.508-4.743.508 1.043-1.737 1.842-3.443 2.402-5.117.56-1.667.837-3.569.837-5.697 0-2.88-.76-5.173-2.288-6.887-1.519-1.706-3.515-2.558-5.971-2.558-2.902 0-5.304.72-7.2 2.167-1.896 1.44-3.478 3.396-4.744 5.861-1.267 2.465-2.226 5.345-2.902 8.647a134.538 134.538 0 00-1.673 10.47 253.101 253.101 0 00-1.121 11.332 270.983 270.983 0 01-1.113 11.378c-.368 3.263-1.228 6.784-2.571 10.58-1.336 3.795-3.385 7.348-6.133 10.642-2.756 3.294-6.348 6.049-10.777 8.248-4.429 2.199-9.917 3.302-16.465 3.302-3.201 0-6.355-.43-9.487-1.307-3.132-.876-5.903-2.222-8.32-4.038-2.419-1.823-4.368-4.1-5.858-6.823-1.48-2.731-2.233-5.924-2.233-9.563 0-1.44.192-2.848.56-4.21zm-21.523 69.641c.676-.72 1.55-1.088 2.626-1.088 1.435 0 2.502.485 3.185 1.455.384.548.591 1.088.63 1.644h-1.804c-.123-.423-.277-.744-.469-.955-.33-.383-.813-.571-1.443-.571-.645 0-1.143.274-1.497.814-.36.54-.521 1.299-.506 2.285.023.986.238 1.729.637 2.214.407.493.906.736 1.505.736.621 0 1.082-.211 1.404-.634.177-.227.315-.563.422-1.017h1.789c-.13.962-.507 1.737-1.129 2.339-.621.603-1.427.9-2.417.9-1.229 0-2.203-.407-2.925-1.213-.721-.821-1.098-1.932-1.136-3.357-.023-1.533.353-2.715 1.128-3.552zm19.443 7.097c-.637.689-1.566 1.025-2.801 1.025-1.236 0-2.188-.336-2.856-1.025-.898-.837-1.359-2.05-1.397-3.631-.038-1.612.369-2.825 1.22-3.631.638-.681 1.567-1.025 2.802-1.025 1.236 0 2.188.344 2.856 1.025.89.806 1.35 2.019 1.39 3.631.045 1.581-.362 2.794-1.214 3.631zm-1.159-1.338c.407-.54.599-1.299.576-2.293-.023-.986-.253-1.745-.683-2.285-.43-.54-1.006-.806-1.72-.806s-1.282.266-1.688.806c-.415.54-.607 1.299-.584 2.293.023.994.254 1.753.691 2.293.438.54 1.013.806 1.727.806.714-.008 1.274-.274 1.681-.814zm9.895-.595c.062.399.184.704.353.908.307.36.822.54 1.55.54.438 0 .784-.047 1.052-.141.507-.188.76-.524.745-1.025a.775.775 0 00-.392-.673c-.253-.157-.66-.29-1.205-.407l-.944-.211c-.92-.204-1.558-.431-1.903-.673-.591-.407-.898-1.041-.921-1.902-.016-.79.253-1.448.806-1.964.552-.517 1.389-.775 2.486-.775.922 0 1.712.243 2.372.736.66.493 1.021 1.205 1.075 2.144h-1.735c-.046-.532-.284-.908-.721-1.127-.292-.149-.653-.219-1.083-.219-.476 0-.852.094-1.136.289a.887.887 0 00-.407.799c.008.313.154.547.438.704.184.102.568.227 1.16.368l1.519.367c.668.165 1.174.376 1.512.642.522.415.798 1.01.814 1.792.023.806-.269 1.471-.868 2.003-.598.533-1.45.799-2.563.799-1.137 0-2.035-.259-2.702-.783-.668-.524-1.006-1.244-1.029-2.16h1.727v-.031zm17.071-6.082h2.594l.208 8.796h-1.681l-.146-5.947c0-.172-.008-.407-.008-.72-.008-.305-.008-.548-.015-.712l-1.459 7.379h-1.758l-1.796-7.379c0 .164.016.407.023.712.008.313.016.548.023.72l.139 5.947h-1.681l-.208-8.796h2.625l1.735 6.918 1.405-6.918zm15.481 1.558h-4.567l.046 1.862h4.191l.039 1.534h-4.191l.053 2.261h4.775l.038 1.581h-6.54l-.207-8.796h6.333l.03 1.558zm12.65-1.558l.039 1.558h-2.579l.169 7.238h-1.812l-.169-7.238h-2.594l-.039-1.558h6.985zm7.7 8.796h-1.797l-.207-8.796h1.789l.215 8.796zm7.122-7.878c.676-.72 1.551-1.088 2.626-1.088 1.435 0 2.494.485 3.185 1.455.384.548.591 1.088.629 1.644h-1.803c-.123-.423-.277-.744-.469-.955-.33-.383-.813-.571-1.443-.571-.644 0-1.143.274-1.496.814-.361.54-.53 1.299-.507 2.285.023.986.238 1.729.645 2.214.399.493.905.736 1.504.736.622 0 1.083-.211 1.405-.634.169-.227.315-.563.422-1.017h1.789c-.131.962-.507 1.737-1.129 2.339-.622.603-1.428.9-2.418.9-1.228 0-2.203-.407-2.924-1.213-.722-.821-1.098-1.932-1.136-3.357-.031-1.533.337-2.715 1.12-3.552zm-94.804 1.777H0v2.982h61.86v-2.982zm105.436 0v2.982H230v-2.982h-62.704zm-8.352-65.251l-.614 2.981H230v-2.981h-71.056z" fill="#02153E"/></svg>